<svg id="bell" xmlns="http://www.w3.org/2000/svg" viewBox="0 0 40.982 44.543">
  <defs>
    <style>
      .cls-1 {
        fill: #4880ff;
      }
    </style>
  </defs>
  <path id="Path_65" data-name="Path 65" class="cls-1" d="M37.1,30.351h0c-1.281,0-2-.665-2.418-2.221a28.626,28.626,0,0,1-.452-6.342,41.04,41.04,0,0,0-.774-9.315.662.662,0,0,0-1.285.315,40.045,40.045,0,0,1,.736,9.008,29.32,29.32,0,0,0,.5,6.673,5.315,5.315,0,0,0,.87,1.881H6.708a5.315,5.315,0,0,0,.87-1.881,29.3,29.3,0,0,0,.5-6.673c.023-3.862.05-8.24,1.631-11.59,1.779-3.771,5.307-5.6,10.786-5.6A14.1,14.1,0,0,1,27.81,6.284a8.879,8.879,0,0,1,3.595,4.2.662.662,0,0,0,1.211-.532,10.3,10.3,0,0,0-4.122-4.8,12.554,12.554,0,0,0-4.074-1.514,3.94,3.94,0,0,0-7.856,0,12.674,12.674,0,0,0-3.912,1.417A10.2,10.2,0,0,0,8.508,9.643c-1.7,3.614-1.732,8.147-1.757,12.146A28.606,28.606,0,0,1,6.3,28.13c-.414,1.556-1.137,2.22-2.418,2.221h0a3.879,3.879,0,0,0,0,7.757H8.065a.661.661,0,1,0,0-1.323H3.878a2.556,2.556,0,0,1,0-5.111H37.1a2.556,2.556,0,0,1,0,5.111H10.712a.661.661,0,0,0,0,1.323h2.716a7.094,7.094,0,0,0,14.127,0H37.1a3.879,3.879,0,0,0,0-7.757ZM20.491,1.323a2.623,2.623,0,0,1,2.567,2.1,22.691,22.691,0,0,0-5.133,0A2.622,2.622,0,0,1,20.491,1.323Zm0,41.9a5.78,5.78,0,0,1-5.734-5.111H26.224a5.78,5.78,0,0,1-5.733,5.111Zm0,0" transform="translate(0 0)"/>
  <path id="Path_66" data-name="Path 66" class="cls-1" d="M354.082,34.715a8.581,8.581,0,0,1,2.349,2.24,12.721,12.721,0,0,1,2.339,7.765.662.662,0,1,0,1.323,0,14.036,14.036,0,0,0-2.647-8.616,9.669,9.669,0,0,0-2.722-2.546.662.662,0,0,0-.642,1.157Zm0,0" transform="translate(-322.968 -30.563)"/>
  <path id="Path_67" data-name="Path 67" class="cls-1" d="M411.841,37.734c.106.07,2.607,1.748,2.607,5.971a.661.661,0,0,0,1.323,0c0-4.981-3.085-7-3.217-7.085a.662.662,0,0,0-.713,1.114Zm0,0" transform="translate(-375.737 -33.34)"/>
  <path id="Path_68" data-name="Path 68" class="cls-1" d="M45.009,45.381a.662.662,0,0,0,.662-.662,12.723,12.723,0,0,1,2.339-7.766,8.609,8.609,0,0,1,2.348-2.24.662.662,0,0,0-.642-1.157A9.669,9.669,0,0,0,46.994,36.1a14.039,14.039,0,0,0-2.646,8.616A.661.661,0,0,0,45.009,45.381Zm0,0" transform="translate(-40.489 -30.562)"/>
  <path id="Path_69" data-name="Path 69" class="cls-1" d="M11.552,44.367a.661.661,0,0,0,.661-.661c0-4.219,2.5-5.9,2.607-5.971a.662.662,0,0,0-.713-1.114c-.131.084-3.217,2.1-3.217,7.085a.661.661,0,0,0,.662.661Zm0,0" transform="translate(-9.943 -33.34)"/>
</svg>
