<svg id="check" xmlns="http://www.w3.org/2000/svg" viewBox="0 0 102.078 86.427">
  <defs>
    <style>
      .cls-1 {
        fill: #35df63;
      }
    </style>
  </defs>
  <g id="Group_164" data-name="Group 164" transform="translate(0 0)">
    <path id="Path_82" data-name="Path 82" class="cls-1" d="M85.2,83.849a1.624,1.624,0,0,0-.738-.185,1.935,1.935,0,0,0-1.411.614L79.12,88.206a1.841,1.841,0,0,0-.552,1.351v15.59a9.848,9.848,0,0,1-9.821,9.821H17.678a9.458,9.458,0,0,1-6.937-2.885,9.457,9.457,0,0,1-2.885-6.937V54.078a9.458,9.458,0,0,1,2.885-6.937,9.457,9.457,0,0,1,6.937-2.885h51.07a10.906,10.906,0,0,1,2.762.368,1.974,1.974,0,0,0,.551.123,1.94,1.94,0,0,0,1.412-.613l3.008-3.008a1.908,1.908,0,0,0,.552-1.779,1.861,1.861,0,0,0-1.105-1.412A16.9,16.9,0,0,0,68.746,36.4H17.678A17.027,17.027,0,0,0,5.186,41.588,17.029,17.029,0,0,0,0,54.079v51.07A17.027,17.027,0,0,0,5.187,117.64a17.025,17.025,0,0,0,12.491,5.188h51.07a17.714,17.714,0,0,0,17.68-17.678V85.629A1.784,1.784,0,0,0,85.2,83.849Z" transform="translate(0 -36.401)"/>
    <path id="Path_83" data-name="Path 83" class="cls-1" d="M158.2,63.182l-6.753-6.753a4.892,4.892,0,0,0-7,0L104.739,96.143,88.6,80a4.892,4.892,0,0,0-7,0l-6.752,6.752a4.891,4.891,0,0,0,0,7l26.394,26.394a4.892,4.892,0,0,0,7,0L158.2,70.179a4.891,4.891,0,0,0,0-7Z" transform="translate(-57.599 -50.967)"/>
  </g>
</svg>
