<svg xmlns="http://www.w3.org/2000/svg" viewBox="0 0 65.479 123.159">
  <defs>
    <style>
      .cls-1 {
        fill: #37b03c;
      }
    </style>
  </defs>
  <g id="coin_1_" data-name="coin (1)" transform="translate(-72.209 -27.706)">
    <path id="Path_48" data-name="Path 48" class="cls-1" d="M111.656,84.369V53.26a19.132,19.132,0,0,1,9.409,6.121c2.038,2.527,6.2,3.227,9.291,1.563s3.951-5.062,1.913-7.59c-4.819-5.977-12.244-10.035-20.612-11.465v-8.7c0-3.026-3-5.479-6.707-5.479s-6.707,2.453-6.707,5.479v8.688C83.4,44.4,72.209,55.171,72.209,68.037S83.4,91.674,98.241,94.2v31.109a19.132,19.132,0,0,1-9.409-6.121c-2.038-2.527-6.2-3.228-9.291-1.563s-3.951,5.062-1.913,7.59c4.819,5.977,12.244,10.035,20.612,11.465v8.7c0,3.026,3,5.479,6.707,5.479s6.707-2.453,6.707-5.479V136.7c14.845-2.528,26.032-13.3,26.032-26.164S126.5,86.9,111.656,84.369ZM85.624,68.037c0-6.773,5.264-12.545,12.617-14.774V82.811C90.888,80.582,85.624,74.81,85.624,68.037Zm26.032,57.27V95.76c7.353,2.228,12.617,8,12.617,14.774S119.01,123.079,111.656,125.307Z"/>
  </g>
</svg>
