<svg xmlns="http://www.w3.org/2000/svg" viewBox="0 0 78.708 114.589">
  <defs>
    <style>
      .cls-1 {
        fill: #2190ff;
      }
    </style>
  </defs>
  <g id="employee" transform="translate(-80.161 0)">
    <g id="Group_2" data-name="Group 2" transform="translate(99.895 84.321)">
      <g id="Group_1" data-name="Group 1">
        <path id="Path_1" data-name="Path 1" class="cls-1" d="M177.191,376.757h-7.176a1.679,1.679,0,0,0,0,3.357h7.176a1.679,1.679,0,1,0,0-3.357Z" transform="translate(-168.336 -376.757)"/>
      </g>
    </g>
    <g id="Group_4" data-name="Group 4" transform="translate(80.161 0)">
      <g id="Group_3" data-name="Group 3">
        <path id="Path_2" data-name="Path 2" class="cls-1" d="M150.9,63.776l-10.49-4.046-5.36-5.36a1.674,1.674,0,0,0-1.3-.487V49.31a19.53,19.53,0,0,0,5.038-9.922.224.224,0,0,1,.1-.107,5.242,5.242,0,0,0,1.41-.1,5.435,5.435,0,0,0,4.212-5.394v-1.4a5.505,5.505,0,0,0-1.715-4c1.726-9.209.36-16.7-3.966-21.7-4.158-4.8-10.87-7.094-19.41-6.633a25.373,25.373,0,0,0-14.658,5.436c-2.136.267-8.459,1.8-8.459,10.593A47.515,47.515,0,0,0,97.688,27.4a5.428,5.428,0,0,0-3.174,5.012v1.377a5.436,5.436,0,0,0,4.212,5.394,5.226,5.226,0,0,0,1.41.1.225.225,0,0,1,.1.1,19.535,19.535,0,0,0,5.038,9.923v4.572a1.675,1.675,0,0,0-1.3.487l-5.36,5.36-10.49,4.046a12.439,12.439,0,0,0-7.955,12.107l1.486,37.1a1.679,1.679,0,0,0,1.676,1.611H83.4a1.679,1.679,0,0,0,1.61-1.744l-1.486-37.1a9.071,9.071,0,0,1,.428-3.145l6.1,6.1a9.027,9.027,0,0,1,2.661,6.425v27.778a1.679,1.679,0,0,0,3.357,0V85.132a12.362,12.362,0,0,0-3.644-8.8l-6.789-6.789a9.071,9.071,0,0,1,3.691-2.637L99.2,63.1l7.516,11.274a5.247,5.247,0,0,0,3.863,2.32q.263.026.525.026a5.24,5.24,0,0,0,2.96-.915l-1.612,37.032a1.678,1.678,0,0,0,1.6,1.75l.074,0a1.678,1.678,0,0,0,1.676-1.606l1.49-34.22h4.431l1.49,34.22a1.679,1.679,0,0,0,1.676,1.606l.074,0a1.679,1.679,0,0,0,1.6-1.75l-1.612-37.032a5.237,5.237,0,0,0,2.96.915c.174,0,.349-.009.525-.026a5.249,5.249,0,0,0,3.863-2.32L139.826,63.1l9.87,3.807a9.073,9.073,0,0,1,3.691,2.637L146.6,76.334a12.362,12.362,0,0,0-3.644,8.8v27.778a1.679,1.679,0,1,0,3.357,0V85.132a9.026,9.026,0,0,1,2.661-6.425l6.1-6.1a9.072,9.072,0,0,1,.428,3.145l-1.485,37.1a1.679,1.679,0,0,0,1.61,1.744h.068a1.679,1.679,0,0,0,1.676-1.611l1.486-37.095A12.443,12.443,0,0,0,150.9,63.776Zm-47.363-25a3.491,3.491,0,0,0-3.63-2.848A1.875,1.875,0,0,1,99.4,35.9a2.1,2.1,0,0,1-1.529-2.105V32.415a2.034,2.034,0,0,1,1.551-2.059,1.9,1.9,0,0,1,1.872.718,2.435,2.435,0,0,0,3.348.528,13.768,13.768,0,0,0,3.7-3.907,1.679,1.679,0,1,0-2.836-1.8,10.539,10.539,0,0,1-2.155,2.467,5.249,5.249,0,0,0-2.261-1.228,44.024,44.024,0,0,1-1.424-11.049c0-7,5.214-7.283,5.8-7.292a1.678,1.678,0,0,0,1.163-.468A21.572,21.572,0,0,1,119.6,3.41c7.466-.4,13.238,1.491,16.691,5.478,3.516,4.06,4.662,10.3,3.345,18.1a7.97,7.97,0,0,0-1.975.133l-1.875-4.5a1.68,1.68,0,0,0-1.975-.978c-.179.047-18.035,4.576-25.559-4.79a1.678,1.678,0,1,0-2.617,2.1c7.6,9.464,22.831,7.239,27.6,6.262L134.7,28.74a2.913,2.913,0,0,0,3.367,1.727,4.351,4.351,0,0,1,1.537-.107,2.051,2.051,0,0,1,1.553,2.034v1.4a2.1,2.1,0,0,1-1.529,2.105,1.873,1.873,0,0,1-.512.035,3.5,3.5,0,0,0-3.631,2.848,16.241,16.241,0,0,1-31.947,0ZM112.452,72.8a1.91,1.91,0,0,1-2.939-.291l-7.573-11.36,3.3-3.3L117.059,68.2Zm4.993,2.6.13-2.978,1.94-1.94,1.94,1.94.13,2.978Zm2.069-9.522-10.88-9.52V52.141a19.583,19.583,0,0,0,21.76,0v4.224Zm10,6.628a1.91,1.91,0,0,1-2.939.291L121.97,68.2l11.82-10.343,3.3,3.3Z" transform="translate(-80.161 0)"/>
      </g>
    </g>
  </g>
</svg>
