<svg id="group-of-people-in-a-formation" xmlns="http://www.w3.org/2000/svg" viewBox="0 0 105.907 87.297">
  <defs>
    <style>
      .cls-1 {
        fill: #1fe1b9;
      }
    </style>
  </defs>
  <path id="Path_81" data-name="Path 81" class="cls-1" d="M96.06,36.288a6,6,0,1,0,5.994,6A6.008,6.008,0,0,0,96.06,36.288Zm-86.2,0a6,6,0,1,0,6,6A6.008,6.008,0,0,0,9.859,36.288Zm68.355-10.9a8.921,8.921,0,1,0,8.929,8.929A8.927,8.927,0,0,0,78.214,25.383Zm27.692,54.264H95.741V60.936a17.422,17.422,0,0,0-2.462-8.8,9.713,9.713,0,0,1,12.628,9.413v18.1ZM27.691,25.383A8.921,8.921,0,1,0,36.6,34.313,8.936,8.936,0,0,0,27.691,25.383ZM9.859,51.687a9.757,9.757,0,0,1,2.771.447,17.264,17.264,0,0,0-2.462,8.8V79.647H0v-18.1A9.876,9.876,0,0,1,9.859,51.687ZM52.944,7.555a13.2,13.2,0,1,0,13.2,13.192A13.211,13.211,0,0,0,52.944,7.555ZM92.476,86.611H76.9V58.141a23.658,23.658,0,0,0-2.7-10.822A14.067,14.067,0,0,1,92.476,60.936ZM28.989,58.141V86.611H13.435V60.936A14.275,14.275,0,0,1,27.7,46.675a14.011,14.011,0,0,1,4,.644A23.648,23.648,0,0,0,28.989,58.141Zm3.265,36.71H73.635V58.141a20.69,20.69,0,0,0-41.381,0Z" transform="translate(0 -7.555)"/>
</svg>
