<svg xmlns="http://www.w3.org/2000/svg" viewBox="0 0 85.394 113.663">
  <defs>
    <style>
      .cls-1 {
        fill: #e63a69;
      }

      .cls-2 {
        fill: #fff;
        stroke: #e63a69;
        stroke-width: 2px;
      }

      .cls-3 {
        stroke: none;
      }

      .cls-4 {
        fill: none;
      }
    </style>
  </defs>
  <g id="Group_300" data-name="Group 300" transform="translate(-707.638 -288.624)">
    <path id="Subtraction_2" data-name="Subtraction 2" class="cls-1" d="M39.753,105.688a100.592,100.592,0,0,1-14.6-1.029,64.282,64.282,0,0,1-12.733-3.087C4.3,98.579,0,94.309,0,89.222A39.738,39.738,0,0,1,63.715,57.5,39.816,39.816,0,0,1,77.851,77.837a20.321,20.321,0,0,0-28.834,27.447C45.992,105.552,42.875,105.688,39.753,105.688Zm.294-56.219A24.741,24.741,0,0,1,30.419,1.944,24.741,24.741,0,0,1,49.675,47.526,24.582,24.582,0,0,1,40.047,49.47Z" transform="translate(707.638 288.624)"/>
    <g id="Ellipse_22" data-name="Ellipse 22" class="cls-2" transform="translate(756.519 365.773)">
      <circle class="cls-3" cx="18.257" cy="18.257" r="18.257"/>
      <circle class="cls-4" cx="18.257" cy="18.257" r="17.257"/>
    </g>
    <path id="right-arrow" class="cls-1" d="M7.82,4.927A.849.849,0,1,1,9.026,6.122L2.908,12.24H23.1a.841.841,0,0,1,.845.845.85.85,0,0,1-.845.857H2.908l6.118,6.107a.866.866,0,0,1,0,1.207.845.845,0,0,1-1.207,0L.253,13.689a.831.831,0,0,1,0-1.194Z" transform="translate(762.558 370.76)"/>
  </g>
</svg>
