<svg xmlns="http://www.w3.org/2000/svg" viewBox="0 0 34.351 27.144">
  <defs>
    <style>
      .cls-1 {
        fill: #24ccb8;
      }
    </style>
  </defs>
  <g id="speaker" transform="translate(0 -6.295)">
    <path id="Path_7" data-name="Path 7" class="cls-1" d="M15.4,7.358a1.75,1.75,0,0,0-.9.254.532.532,0,0,0-.074.053L6.661,14.228H.573A.572.572,0,0,0,0,14.8V25.679a.573.573,0,0,0,.573.573l6.074,0L14.4,33.37a.559.559,0,0,0,.092.069,1.75,1.75,0,0,0,.9.254,1.8,1.8,0,0,0,1.778-1.807V9.165A1.794,1.794,0,0,0,15.4,7.358ZM7.443,25.106a.573.573,0,1,1-1.145,0v-2.29a.573.573,0,0,1,1.145,0Zm0-7.443a.573.573,0,1,1-1.145,0v-2.29a.573.573,0,0,1,1.145,0Z" transform="translate(0 -0.454)"/>
    <path id="Path_8" data-name="Path 8" class="cls-1" d="M45.806,21.95a11.152,11.152,0,0,0-7.574-10.561.573.573,0,0,0-.368,1.085,10.009,10.009,0,0,1,.013,18.954.573.573,0,0,0,.185,1.115.565.565,0,0,0,.185-.031A11.159,11.159,0,0,0,45.806,21.95Z" transform="translate(-16.02 -2.164)"/>
    <path id="Path_9" data-name="Path 9" class="cls-1" d="M43.552,6.34a.573.573,0,1,0-.447,1.055,13.456,13.456,0,0,1-.393,24.937.573.573,0,0,0,.414,1.068A14.6,14.6,0,0,0,43.552,6.34Z" transform="translate(-18.102 0)"/>
    <path id="Path_10" data-name="Path 10" class="cls-1" d="M38.312,24.3a7.763,7.763,0,0,0-5.581-7.421.573.573,0,0,0-.317,1.1,6.579,6.579,0,0,1,0,12.641.573.573,0,0,0,.159,1.123.583.583,0,0,0,.159-.022A7.764,7.764,0,0,0,38.312,24.3Z" transform="translate(-13.679 -4.515)"/>
  </g>
</svg>
