<svg xmlns="http://www.w3.org/2000/svg" viewBox="0 0 144.583 202.688">
  <defs>
    <style>
      .cls-1 {
        fill: #18c2bc;
      }
    </style>
  </defs>
  <g id="tap" transform="translate(0 0)">
    <path id="Path_116" data-name="Path 116" class="cls-1" d="M.753,92.081a10.574,10.574,0,0,0,3.059,11.775c6.446,6.451,19.7,29.739,26.267,46.149,4.479,11.192,14.312,22.178,21.773,29.425a16.765,16.765,0,0,1,5,11.986v1.235a10.131,10.131,0,0,0,10.132,10.132H121.02a10.131,10.131,0,0,0,10.132-10.132V182.276a3.1,3.1,0,0,1,.9-2.3c12.465-11.4,12.607-30.425,12.607-31.229V95.286a13.869,13.869,0,0,0-12.525-14.045,13.5,13.5,0,0,0-7.737,1.84V77.829A13.431,13.431,0,0,0,103.99,66.277,13.35,13.35,0,0,0,83.872,56.067V50.474a26.678,26.678,0,0,0,13.51-23.3,27.017,27.017,0,0,0-54.034,0,26.68,26.68,0,0,0,13.508,23.3v54.372a37.363,37.363,0,0,1-1.608,11.777,3.414,3.414,0,0,1-2.435,2.269,3.254,3.254,0,0,1-3.039-.8,48,48,0,0,1-6.983-8.368c-5.861-8.767-20.607-25.143-29.838-25.143a13.229,13.229,0,0,0-12.2,7.5ZM50.1,27.173a20.262,20.262,0,0,1,40.525,0A20.057,20.057,0,0,1,83.872,42.3V27.173a13.508,13.508,0,0,0-27.016,0V42.3A20.063,20.063,0,0,1,50.1,27.173Zm-12.941,86.3a54.87,54.87,0,0,0,7.98,9.54,9.992,9.992,0,0,0,9.314,2.429,10.179,10.179,0,0,0,7.193-6.66,43.985,43.985,0,0,0,1.962-13.938V27.172a6.754,6.754,0,0,1,13.508,0V98.091a3.377,3.377,0,1,0,6.754,0V67.7a6.755,6.755,0,0,1,13.51,0V98.091a3.377,3.377,0,1,0,6.754,0V77.829a6.754,6.754,0,1,1,13.508,0v23.64a3.377,3.377,0,0,0,6.754,0V94.715a6.7,6.7,0,0,1,1.982-4.772,6.833,6.833,0,0,1,5.268-1.965,7.192,7.192,0,0,1,6.258,7.308v53.463c0,.165-.172,16.886-10.415,26.248a9.855,9.855,0,0,0-3.093,7.28V192.65a3.377,3.377,0,0,1-3.378,3.378H66.987a3.377,3.377,0,0,1-3.378-3.378v-1.235a23.57,23.57,0,0,0-7.054-16.832c-5.721-5.554-15.954-16.467-20.2-27.091-6.95-17.365-20.7-41.347-27.766-48.412-1.608-1.606-2.146-3.093-1.6-4.417a6.659,6.659,0,0,1,5.964-3.327c4.59,0,17.034,11.378,24.208,22.138Zm0,0" transform="translate(-0.079 -0.095)"/>
    <path id="Path_117" data-name="Path 117" class="cls-1" d="M317.587,325.841a3.377,3.377,0,0,0,3.378-3.378V302.2a3.377,3.377,0,0,0-6.754,0v20.262A3.377,3.377,0,0,0,317.587,325.841Zm0,0" transform="translate(-189.892 -180.564)"/>
    <path id="Path_118" data-name="Path 118" class="cls-1" d="M309.055,397.737a3.372,3.372,0,0,0,2.387-.989,13.71,13.71,0,0,0,4.367-9.143,3.335,3.335,0,0,0-3.3-3.328,3.4,3.4,0,0,0-3.458,3.251,7.43,7.43,0,0,1-2.388,4.445,3.377,3.377,0,0,0,2.388,5.765Zm0,0" transform="translate(-184.736 -232.197)"/>
    <path id="Path_119" data-name="Path 119" class="cls-1" d="M181.054,467.711h3.376a3.377,3.377,0,1,0,0-6.754h-3.376a3.377,3.377,0,1,0,0,6.754Zm0,0" transform="translate(-107.391 -278.531)"/>
    <path id="Path_120" data-name="Path 120" class="cls-1" d="M223.72,467.711h23.64a3.377,3.377,0,1,0,0-6.754H223.72a3.377,3.377,0,0,0,0,6.754Zm0,0" transform="translate(-133.173 -278.531)"/>
    <path id="Path_121" data-name="Path 121" class="cls-1" d="M88.786,55.916a3.378,3.378,0,0,0,2.463-5.691A33.688,33.688,0,0,1,89.769,5.591a3.377,3.377,0,1,0-5.205-4.3,40.448,40.448,0,0,0,1.761,53.565,3.379,3.379,0,0,0,2.461,1.064Zm0,0" transform="translate(-45.518 -0.001)"/>
    <path id="Path_122" data-name="Path 122" class="cls-1" d="M247.684,46.97a3.377,3.377,0,0,0,4.545-1.466A40.386,40.386,0,0,0,247.4,1.288a3.377,3.377,0,1,0-5.2,4.3,33.639,33.639,0,0,1,4.022,36.835,3.376,3.376,0,0,0,1.462,4.545Zm0,0" transform="translate(-145.879 -0.001)"/>
  </g>
</svg>
