<svg id="traveler-with-a-suitcase" xmlns="http://www.w3.org/2000/svg" viewBox="0 0 97.931 112.245">
  <defs>
    <style>
      .cls-1 {
        fill: #8d64b7;
      }
    </style>
  </defs>
  <g id="Group_163" data-name="Group 163" transform="translate(0 0)">
    <ellipse id="Ellipse_6" data-name="Ellipse 6" class="cls-1" cx="12.584" cy="12.584" rx="12.584" ry="12.584" transform="translate(49.548 0)"/>
    <path id="Path_80" data-name="Path 80" class="cls-1" d="M125.106,131.217c-11.245-1.157-22.147-13.325-24.891-15.01a13.194,13.194,0,0,0-5.579-2.308,9.98,9.98,0,0,0-2.753-.127,11.034,11.034,0,0,0-6.356,2.44,20.182,20.182,0,0,0-2.219,2.038C79.6,122.1,69.318,133.468,64.2,146.333a4.88,4.88,0,0,0,1,5.152l-6.01,10.709-8.466-4.756a2.1,2.1,0,0,0-2.861.8L31.834,186.552a2.1,2.1,0,0,0,.8,2.862l6.409,3.6a4.812,4.812,0,1,0,7.985-.612l8.75-15.351,6.13-10.923,7.6-13.172a4.885,4.885,0,0,0,3.777-3.018,68.606,68.606,0,0,1,8.759-15.061l1.526,17.542a8.512,8.512,0,0,0,2.308,5.154c-3.935,7.136-14.526,26.652-18.35,33.282a6.216,6.216,0,1,0,10.771,6.21c3.562-6.176,12.854-24.918,16.929-31.963a284.046,284.046,0,0,1,15.9,31.375,6.217,6.217,0,0,0,11.372-5.028c-8.328-18.828-14.46-29.281-17.857-34.785a8.618,8.618,0,0,0,1.94-6.24l-1.445-16.615c4.185,3.342,9.646,6.156,18.97,7.121a4.74,4.74,0,0,0,.511.027,4.884,4.884,0,0,0,.488-9.743ZM43.147,197.279a1.753,1.753,0,1,1,1.752-1.752A1.753,1.753,0,0,1,43.147,197.279Z" transform="translate(-31.565 -87.939)"/>
  </g>
</svg>
