<svg xmlns="http://www.w3.org/2000/svg" viewBox="0 0 136.25 136.25">
  <defs>
    <style>
      .cls-1 {
        fill: #ffae21;
      }
    </style>
  </defs>
  <g id="write-board" transform="translate(0)">
    <path id="Path_1" data-name="Path 1" class="cls-1" d="M131.953,7.092H72.424V4.3a4.3,4.3,0,0,0-8.6,0V7.092H4.3A4.3,4.3,0,0,0,0,11.39V25.574a4.3,4.3,0,0,0,4.3,4.3H7.093v73.713a4.3,4.3,0,0,0,4.3,4.3H59.53L43.412,129.373a4.3,4.3,0,1,0,6.877,5.157l13.539-18.052v15.473a4.3,4.3,0,0,0,8.6,0V116.479l13.539,18.052a4.3,4.3,0,1,0,6.877-5.157L76.722,107.882h48.139a4.3,4.3,0,0,0,4.3-4.3V29.872h2.794a4.3,4.3,0,0,0,4.3-4.3V11.39A4.3,4.3,0,0,0,131.953,7.092ZM8.6,21.276V15.688H127.654v5.588ZM120.563,99.286H15.689V29.872H120.563V99.286Z" transform="translate(-0.001 0)"/>
    <path id="Path_2" data-name="Path 2" class="cls-1" d="M83.415,166.831h63.827a4.3,4.3,0,1,0,0-8.6H83.415a4.3,4.3,0,1,0,0,8.6Z" transform="translate(-50.75 -101.499)"/>
    <path id="Path_3" data-name="Path 3" class="cls-1" d="M83.415,127.273H97.6a4.3,4.3,0,0,0,0-8.6H83.415a4.3,4.3,0,1,0,0,8.6Z" transform="translate(-50.75 -76.125)"/>
    <path id="Path_4" data-name="Path 4" class="cls-1" d="M83.415,206.388h42.551a4.3,4.3,0,1,0,0-8.6H83.415a4.3,4.3,0,1,0,0,8.6Z" transform="translate(-50.75 -126.873)"/>
  </g>
</svg>
